HIERARCHY
ROOT SpineBase
{
  OFFSET 0.000000 0.000000 0.000000
  CHANNELS 6 Xposition Yposition Zposition Zrotation Xrotation Yrotation
  JOINT SpineMid
  {
    OFFSET 0.000000 27.205286 -0.000000
    CHANNELS 3 Zrotation Xrotation Yrotation
    JOINT SpineShoulder
    {
      OFFSET 0.077392 20.422842 -0.505792
      CHANNELS 3 Zrotation Xrotation Yrotation
      JOINT Neck
      {
        OFFSET 0.083337 6.843625 -0.441455
        CHANNELS 3 Zrotation Xrotation Yrotation
        JOINT Head
        {
          OFFSET 3.584026 14.094491 -0.682561
          CHANNELS 3 Zrotation Xrotation Yrotation
          End Site
          {
            OFFSET 0 0 0
          }
        }
      }
      JOINT ShoulderLeft
      {
        OFFSET -9.880030 0.781255 -10.220746
        CHANNELS 3 Zrotation Xrotation Yrotation
        JOINT ElbowLeft
        {
          OFFSET 0.131627 -20.494368 -10.053885
          CHANNELS 3 Zrotation Xrotation Yrotation
          JOINT WristLeft
          {
            OFFSET 11.419193 -12.833757 -9.205638
            CHANNELS 3 Zrotation Xrotation Yrotation
            JOINT HandLeft
            {
              OFFSET 3.706944 -2.817640 -4.176705
              CHANNELS 3 Zrotation Xrotation Yrotation
              JOINT HandTipLeft
              {
                OFFSET 5.964253 -1.636317 -5.807544
                CHANNELS 3 Zrotation Xrotation Yrotation
                End Site
                {
                  OFFSET 0 0 0
                }
              }
              JOINT ThumbLeft
              {
                OFFSET -3.212530 -2.320414 -2.091071
                CHANNELS 3 Zrotation Xrotation Yrotation
                End Site
                {
                  OFFSET 0 0 0
                }
              }
            }
          }
        }
      }
      JOINT ShoulderRight
      {
        OFFSET 14.272955 -3.712356 9.646836
        CHANNELS 3 Zrotation Xrotation Yrotation
        JOINT ElbowRight
        {
          OFFSET 9.969292 -23.639428 -2.100329
          CHANNELS 3 Zrotation Xrotation Yrotation
          JOINT WristRight
          {
            OFFSET 3.711939 -13.708200 -14.034327
            CHANNELS 3 Zrotation Xrotation Yrotation
            JOINT HandRight
            {
              OFFSET 3.025736 -4.204825 -4.493317
              CHANNELS 3 Zrotation Xrotation Yrotation
              JOINT HandTipRight
              {
                OFFSET 4.401611 -6.444439 -4.523468
                CHANNELS 3 Zrotation Xrotation Yrotation
                End Site
                {
                  OFFSET 0 0 0
                }
              }
              JOINT ThumbRight
              {
                OFFSET -2.411749 -1.652414 -2.833922
                CHANNELS 3 Zrotation Xrotation Yrotation
                End Site
                {
                  OFFSET 0 0 0
                }
              }
            }
          }
        }
      }
    }
  }
  JOINT HipLeft
  {
    OFFSET -5.041074 1.832646 -7.210710
    CHANNELS 3 Zrotation Xrotation Yrotation
    JOINT KneeLeft
    {
      OFFSET 14.851962 3.513898 -29.237243
      CHANNELS 3 Zrotation Xrotation Yrotation
      JOINT AnkleLeft
      {
        OFFSET 8.149705 -30.464621 6.650171
        CHANNELS 3 Zrotation Xrotation Yrotation
        JOINT FootLeft
        {
          OFFSET 8.771004 -2.339889 -11.025463
          CHANNELS 3 Zrotation Xrotation Yrotation
          End Site
          {
            OFFSET 0 0 0
          }
        }
      }
    }
  }
  JOINT HipRight
  {
    OFFSET 6.008360 0.813527 1.335181
    CHANNELS 3 Zrotation Xrotation Yrotation
    JOINT KneeRight
    {
      OFFSET 29.969383 2.088197 -9.474195
      CHANNELS 3 Zrotation Xrotation Yrotation
      JOINT AnkleRight
      {
        OFFSET -6.082423 -31.825666 -8.764593
        CHANNELS 3 Zrotation Xrotation Yrotation
        JOINT FootRight
        {
          OFFSET 7.297007 -2.386615 -10.752031
          CHANNELS 3 Zrotation Xrotation Yrotation
          End Site
          {
            OFFSET 0 0 0
          }
        }
      }
    }
  }
}
MOTION
Frames: 5
Frame Time: 0.033333
-58.323185 35.215808 345.666350 -0.000000 -0.000000 -37.719204 -0.000000 0.000000 37.719204 -0.000000 0.000000 0.000000 -0.000000 0.000000 0.000000 0.000000 0.000000 0.000000 -0.000000 0.000000 0.000000 -0.000000 0.000000 0.000000 -0.000000 0.000000 0.000000 -0.000000 0.000000 0.000000 0.000000 0.000000 0.000000 0.000000 0.000000 0.000000 -0.000000 0.000000 0.000000 -0.000000 0.000000 0.000000 -0.000000 0.000000 0.000000 -0.000000 0.000000 0.000000 0.000000 0.000000 0.000000 0.000000 0.000000 0.000000 -0.000000 0.000000 37.719204 -0.000000 0.000000 0.000000 -0.000000 0.000000 0.000000 0.000000 0.000000 0.000000 -0.000000 0.000000 37.719204 -0.000000 0.000000 0.000000 -0.000000 0.000000 0.000000 0.000000 0.000000 0.000000
-58.329813 35.220534 345.675969 -0.050218 0.064310 -37.705380 0.079063 -0.020166 37.705422 -0.000000 0.000000 0.000000 -0.000000 0.000000 0.000000 0.000000 0.000000 0.000000 -0.939214 0.344948 0.465137 -0.043656 -0.952128 -0.309886 -3.653030 -4.145011 0.326240 6.294666 6.349076 -0.594854 0.000000 0.000000 0.000000 0.000000 0.000000 0.000000 0.296781 0.933088 0.364066 -1.628477 -4.441980 -0.039702 4.087198 9.941858 0.904298 -4.388298 -3.611539 1.000973 0.000000 0.000000 0.000000 0.000000 0.000000 0.000000 0.079063 -0.020166 37.705422 -0.000000 0.000000 0.000000 -5.151857 -4.845792 9.312637 0.000000 0.000000 0.000000 0.079063 -0.020166 37.705422 -0.000000 0.000000 0.000000 -1.220118 -1.052082 2.449741 0.000000 0.000000 0.000000
-58.334740 35.226643 345.684548 -0.101500 0.119411 -37.709853 0.153338 -0.032384 37.710003 -0.000000 0.000000 0.000000 -0.161704 1.034072 -0.269349 0.000000 0.000000 0.000000 -1.763512 0.663796 0.877248 -0.042763 -1.763431 -0.591498 -6.526746 -7.483719 0.257158 11.172265 11.117187 -1.466738 0.000000 0.000000 0.000000 0.000000 0.000000 0.000000 0.494728 1.640749 0.638966 -2.648037 -7.899746 -0.412684 8.610773 21.185695 1.670971 -9.805468 -8.993651 0.508276 0.000000 0.000000 0.000000 0.000000 0.000000 0.000000 0.153338 -0.032384 37.710003 -0.000000 0.000000 0.000000 -10.363324 -11.793366 20.134813 0.000000 0.000000 0.000000 0.153338 -0.032384 37.710003 -0.000000 0.000000 0.000000 -2.274706 -1.887099 5.130612 0.000000 0.000000 0.000000
-58.337966 35.234137 345.692086 -0.153872 0.165372 -37.732701 0.222898 -0.036622 37.732994 -0.000000 0.000000 0.000000 -0.286373 1.356585 -0.355431 0.000000 0.000000 0.000000 -2.437624 0.948807 1.217457 -0.025803 -2.424807 -0.821181 -8.574633 -9.929826 -0.064583 14.643587 14.467762 -2.216167 0.000000 0.000000 0.000000 0.000000 0.000000 0.000000 0.596338 2.119883 0.826900 -3.013718 -10.301083 -1.043674 13.649203 33.366233 1.819036 -16.354667 -15.707182 -1.958298 0.000000 0.000000 0.000000 0.000000 0.000000 0.000000 -0.018928 0.997622 37.289010 -1.383995 -0.922284 0.233505 -13.469595 -20.134944 31.297448 0.000000 0.000000 0.000000 0.222898 -0.036622 37.732994 -0.000000 0.000000 0.000000 -3.157016 -2.465113 8.071817 0.000000 0.000000 0.000000
-58.339492 35.243015 345.698583 -0.207360 0.202253 -37.773981 0.287794 -0.032849 37.774429 -0.000000 0.000000 0.000000 -0.441212 1.549021 -0.409186 0.000000 0.000000 0.000000 -2.930341 1.192942 1.468681 -0.017651 -2.927588 -0.978544 -9.791955 -11.487421 -0.526274 16.693761 16.562101 -2.583950 0.000000 0.000000 0.000000 0.000000 0.000000 0.000000 0.603265 2.368419 0.929100 -2.686928 -11.613962 -1.879547 18.896661 44.789882 0.819159 -23.419135 -22.216440 -5.985002 0.000000 0.000000 0.000000 0.000000 0.000000 0.000000 -0.039533 1.407603 37.243713 -1.763427 -1.168152 0.300511 -15.621815 -28.082918 40.856152 0.000000 0.000000 0.000000 0.287794 -0.032849 37.774429 -0.000000 0.000000 0.000000 -3.865112 -2.740589 11.300790 0.000000 0.000000 0.000000
